<?xml version="1.0" standalone="no"?><!DOCTYPE svg PUBLIC "-//W3C//DTD SVG 1.1//EN" "http://www.w3.org/Graphics/SVG/1.1/DTD/svg11.dtd"><svg height="1024" node-id="1" sillyvg="true" template-height="1024" template-width="1024" version="1.1" viewBox="0 0 1024 1024" width="1024" xmlns="http://www.w3.org/2000/svg" xmlns:xlink="http://www.w3.org/1999/xlink"><defs node-id="16"></defs><g node-id="18"><path d="M 0.00 0.00 L 1024.00 0.00 L 1024.00 1024.00 L 0.00 1024.00 Z" fill="none" group-id="1" id="矩形备份-183" node-id="6" stroke="none" target-height="1024" target-width="1024" target-x="0" target-y="0"></path><path d="M 501.62 530.63 C 511.33 538.58 515.14 541.71 518.12 544.16 L 518.40 544.38 L 519.10 544.96 C 520.49 546.09 521.81 547.18 523.65 548.69 L 525.10 549.87 L 588.22 549.87 L 589.57 548.93 C 589.71 548.84 589.84 548.74 589.96 548.66 L 590.33 548.40 C 590.39 548.36 590.45 548.32 590.51 548.28 L 590.87 548.03 L 591.00 547.94 C 592.29 547.03 594.27 545.65 601.45 540.65 C 603.99 538.87 606.07 537.42 607.91 536.14 L 607.91 550.26 C 606.02 552.22 603.97 554.36 601.79 556.63 C 594.31 564.40 586.80 572.17 579.74 579.42 C 579.31 579.87 579.31 579.87 578.88 580.31 C 571.78 587.60 565.59 593.90 560.55 598.95 L 558.13 601.38 L 556.99 602.51 C 553.86 605.61 551.37 608.03 549.60 609.67 C 548.87 610.35 548.27 610.88 547.83 611.27 C 546.93 610.41 545.85 609.37 544.51 608.08 C 540.47 604.19 538.26 602.07 536.05 599.95 L 535.58 599.49 C 533.29 597.29 530.85 594.94 526.22 590.50 L 524.94 589.27 C 519.51 584.04 516.84 581.47 514.36 579.09 L 514.00 578.75 L 513.83 578.58 L 513.38 578.15 C 511.32 576.17 509.15 574.08 505.37 570.45 C 500.03 565.32 498.70 564.03 497.62 562.99 L 497.26 562.65 C 497.02 562.42 496.77 562.18 496.48 561.89 L 489.24 569.42 C 489.46 569.63 489.66 569.82 489.84 570.00 L 490.20 570.34 C 490.28 570.42 490.36 570.50 490.44 570.58 L 490.57 570.70 C 491.63 571.72 493.11 573.13 498.14 577.97 C 501.91 581.60 504.08 583.69 506.15 585.68 L 506.59 586.10 L 506.77 586.27 L 507.12 586.61 C 509.60 589.00 512.27 591.56 517.71 596.79 C 523.20 602.08 525.87 604.64 528.38 607.05 L 529.04 607.69 L 529.49 608.12 C 531.49 610.04 533.64 612.11 537.28 615.61 C 539.63 617.87 541.20 619.38 542.32 620.45 C 540.84 620.35 539.73 620.27 538.68 620.20 L 537.45 620.11 C 535.37 619.96 533.04 619.80 528.10 619.45 C 517.52 618.70 512.02 618.32 506.23 617.91 L 505.50 617.86 C 499.44 617.43 492.82 616.96 479.59 616.03 C 473.17 615.57 468.31 615.23 464.32 614.95 L 461.47 614.75 C 458.19 614.52 455.48 614.33 452.83 614.14 L 451.24 614.03 C 448.58 613.84 445.87 613.65 442.59 613.42 L 439.75 613.21 C 437.25 613.04 434.41 612.84 431.07 612.60 C 418.59 611.72 414.94 611.46 412.31 611.28 L 412.09 611.26 L 411.44 611.22 C 410.69 611.16 409.96 611.11 409.02 611.05 L 408.29 621.46 C 408.82 621.50 409.28 621.53 409.72 621.56 L 409.94 621.58 C 410.34 621.60 410.72 621.63 411.11 621.66 L 411.33 621.67 C 411.36 621.68 411.40 621.68 411.44 621.68 L 411.66 621.70 L 411.89 621.71 C 414.50 621.90 418.34 622.17 430.34 623.01 C 441.14 623.78 446.66 624.17 452.58 624.58 L 453.31 624.64 C 459.27 625.06 465.89 625.52 478.85 626.44 C 505.32 628.31 505.32 628.31 527.37 629.86 C 532.30 630.21 534.64 630.38 536.71 630.52 L 537.94 630.61 C 539.38 630.71 540.92 630.82 543.36 630.99 C 546.05 631.18 546.05 631.18 547.84 631.31 C 549.15 631.40 549.15 631.40 549.42 631.42 L 550.27 631.48 L 551.09 631.27 C 551.12 631.26 551.14 631.26 551.17 631.25 L 551.24 631.23 C 551.40 631.19 551.61 631.14 552.54 630.90 C 554.18 630.48 554.18 630.48 556.64 629.84 C 558.99 629.24 560.43 628.87 561.82 628.51 L 562.21 628.41 L 562.58 628.32 C 564.51 627.82 566.65 627.27 571.27 626.08 C 579.72 623.91 584.63 622.65 589.26 621.46 L 589.93 621.29 C 590.13 621.24 590.32 621.19 590.52 621.14 L 591.11 620.99 C 596.91 619.50 602.94 617.95 615.67 614.68 C 628.54 611.37 634.57 609.82 640.42 608.32 L 642.49 607.79 C 647.01 606.63 651.88 605.37 660.08 603.27 C 671.01 600.46 674.54 599.55 676.93 598.94 L 677.15 598.88 C 677.33 598.84 677.50 598.79 677.67 598.75 L 678.28 598.59 L 678.89 598.43 C 679.31 598.33 679.75 598.21 680.26 598.08 L 677.66 587.97 C 677.03 588.13 676.50 588.27 675.99 588.40 L 675.38 588.56 C 675.22 588.60 675.05 588.64 674.88 588.69 L 674.68 588.74 C 672.27 589.36 668.95 590.21 657.48 593.16 C 648.65 595.43 643.68 596.70 638.86 597.94 L 636.79 598.47 C 636.60 598.52 636.40 598.57 636.20 598.62 L 635.61 598.78 C 630.36 600.12 624.34 601.67 613.08 604.57 C 600.72 607.74 594.67 609.30 589.02 610.75 L 588.35 610.92 C 588.01 611.01 587.67 611.09 587.33 611.18 L 586.66 611.35 C 582.03 612.54 577.12 613.80 568.67 615.97 C 564.07 617.16 561.93 617.71 560.01 618.20 L 559.61 618.30 L 559.22 618.40 C 557.83 618.76 556.40 619.13 554.04 619.73 L 553.79 619.80 C 557.86 616.80 565.79 608.71 586.36 587.59 C 586.79 587.15 586.79 587.15 587.22 586.70 C 594.30 579.43 601.82 571.65 609.31 563.86 C 611.93 561.14 614.36 558.61 616.54 556.34 C 617.85 554.97 618.78 554.00 619.28 553.48 L 613.73 548.17 C 615.83 545.83 616.88 544.65 616.88 544.65 L 616.90 544.66 C 617.53 544.78 633.66 547.91 665.29 554.05 L 684.62 595.16 C 685.29 595.01 685.92 594.88 686.50 594.75 L 688.08 594.42 C 690.24 593.95 691.43 593.70 691.43 593.70 C 691.43 593.70 739.14 589.64 834.57 581.52 C 845.37 589.37 854.71 596.16 862.59 601.89 L 864.31 603.14 C 869.99 607.27 874.87 610.81 878.95 613.78 L 880.15 614.65 C 881.91 615.93 883.51 617.10 884.95 618.14 L 885.88 618.82 C 891.66 623.02 894.54 625.12 894.54 625.12 C 894.54 625.12 895.98 636.65 897.71 650.46 L 897.82 651.38 L 897.94 652.31 C 898.06 653.25 898.17 654.19 898.29 655.13 L 898.42 656.18 C 898.57 657.39 898.73 658.62 898.88 659.85 L 899.15 662.00 L 899.27 663.00 L 899.40 664.01 C 899.46 664.51 899.52 665.01 899.59 665.51 L 899.71 666.51 C 901.00 676.82 902.21 686.49 902.89 692.00 L 902.96 692.52 C 903.09 693.57 903.20 694.45 903.28 695.13 C 926.71 690.52 906.13 719.02 930.05 719.02 C 947.76 719.02 958.23 727.56 961.47 744.63 L 976.56 744.12 C 982.33 744.12 987.00 748.80 987.00 754.56 C 987.00 760.33 982.33 765.00 976.56 765.00 L 47.44 765.00 C 41.67 765.00 37.00 760.33 37.00 754.56 C 37.00 748.80 41.67 744.12 47.44 744.12 L 63.01 744.12 C 63.56 739.31 68.74 701.76 97.40 701.76 C 120.91 701.76 132.57 676.49 147.31 684.16 C 148.93 678.54 161.94 633.35 161.94 633.35 C 161.94 633.35 217.74 629.70 276.27 625.88 L 279.86 625.65 L 290.02 624.99 L 294.39 624.70 C 341.38 621.64 386.61 618.68 402.59 617.64 L 403.67 617.57 L 403.78 617.39 C 405.55 614.54 413.87 601.11 422.90 586.55 L 423.51 585.57 C 423.71 585.24 423.91 584.91 424.12 584.59 L 424.73 583.60 C 425.24 582.77 425.75 581.95 426.26 581.12 L 427.57 579.02 C 428.11 578.14 428.66 577.27 429.20 576.39 L 429.84 575.35 C 439.53 559.73 448.29 545.59 448.85 544.70 L 448.87 544.66 L 493.65 544.65 C 493.65 544.65 495.95 548.26 500.54 555.48 C 500.55 555.27 500.56 555.06 500.57 554.85 L 500.69 552.16 C 501.03 544.13 501.38 536.19 501.62 530.65 L 501.62 530.63 Z M 446.68 682.34 C 446.48 679.47 443.98 677.30 441.10 677.50 C 440.26 677.56 439.54 677.61 438.86 677.66 L 438.60 677.68 C 438.52 677.68 438.43 677.69 438.35 677.70 L 438.09 677.71 L 437.84 677.73 C 437.75 677.74 437.66 677.74 437.58 677.75 L 437.32 677.77 C 434.14 677.99 429.86 678.29 414.59 679.36 C 403.72 680.13 397.30 680.58 391.32 681.00 L 390.45 681.06 C 382.19 681.64 374.39 682.19 356.25 683.46 C 324.43 685.70 324.43 685.70 297.92 687.56 C 282.64 688.63 278.37 688.93 275.19 689.15 L 274.93 689.17 C 274.84 689.18 274.75 689.19 274.67 689.19 L 274.41 689.21 C 274.24 689.22 274.07 689.23 273.90 689.24 L 273.65 689.26 C 273.56 689.27 273.48 689.27 273.39 689.28 L 273.13 689.30 C 272.60 689.34 272.04 689.38 271.40 689.42 C 268.52 689.62 266.36 692.12 266.56 694.99 C 266.76 697.87 269.26 700.04 272.13 699.83 C 272.87 699.78 273.51 699.74 274.12 699.69 L 274.38 699.68 L 274.76 699.65 L 275.02 699.63 C 278.37 699.40 281.89 699.15 298.65 697.97 C 308.88 697.25 315.17 696.81 320.86 696.41 L 321.63 696.36 C 321.88 696.34 322.14 696.32 322.39 696.30 L 324.68 696.14 C 332.30 695.61 340.24 695.05 356.98 693.87 C 388.80 691.64 388.80 691.64 415.32 689.78 C 431.02 688.67 435.10 688.39 438.31 688.16 L 438.57 688.14 L 438.95 688.12 L 439.21 688.10 C 439.29 688.09 439.38 688.09 439.46 688.08 L 439.85 688.05 C 440.46 688.01 441.09 687.97 441.84 687.91 C 444.71 687.71 446.88 685.22 446.68 682.34 Z M 731.09 678.54 C 730.85 675.66 728.33 673.53 725.45 673.77 C 723.50 673.93 722.03 674.05 720.56 674.18 L 719.68 674.25 C 717.29 674.45 714.66 674.67 709.78 675.07 L 707.84 675.24 C 705.17 675.46 701.92 675.73 697.84 676.07 L 696.65 676.17 C 695.84 676.24 695.00 676.31 694.13 676.38 C 679.58 677.59 674.05 678.05 670.08 678.38 L 669.77 678.41 C 669.15 678.46 668.57 678.51 668.00 678.56 L 667.71 678.58 L 666.82 678.65 C 665.63 678.75 664.38 678.86 662.82 678.99 C 659.94 679.23 657.81 681.75 658.05 684.62 C 658.29 687.49 660.81 689.63 663.68 689.39 C 665.64 689.23 667.11 689.10 668.58 688.98 L 669.46 688.91 C 671.84 688.71 674.47 688.49 679.36 688.08 L 681.30 687.92 C 684.73 687.64 689.13 687.27 695.00 686.78 C 711.09 685.44 716.16 685.02 720.27 684.67 L 720.56 684.65 L 720.85 684.63 L 721.28 684.59 L 721.43 684.58 L 722.31 684.50 C 723.50 684.41 724.75 684.30 726.32 684.17 C 729.19 683.93 731.33 681.41 731.09 678.54 Z M 549.79 620.40 L 549.79 620.82 L 549.50 620.90 L 549.31 620.95 L 549.27 620.94 L 549.79 620.40 Z M 549.79 611.03 L 549.79 613.16 C 549.26 612.65 548.62 612.03 547.83 611.27 L 547.88 611.23 C 548.32 610.89 548.35 611.03 549.79 611.03 Z M 618.08 330.72 L 639.33 372.92 L 629.08 508.63 L 627.76 509.55 C 617.92 516.42 613.12 519.77 608.80 522.79 L 608.34 523.11 L 607.83 523.46 C 607.58 523.64 607.33 523.81 607.08 523.98 L 606.58 524.33 C 603.56 526.44 600.39 528.65 595.47 532.09 L 594.45 532.80 C 588.20 537.16 586.32 538.47 585.08 539.33 L 584.93 539.43 L 528.83 539.43 L 528.58 539.23 C 527.62 538.44 526.78 537.75 525.92 537.05 L 525.65 536.83 L 525.38 536.61 C 525.29 536.53 525.20 536.46 525.11 536.38 L 524.83 536.16 L 524.59 535.96 L 524.35 535.76 C 520.99 533.01 516.39 529.24 503.90 519.00 C 492.38 509.56 487.57 505.62 484.26 502.90 L 484.00 502.69 C 483.75 502.48 483.50 502.28 483.26 502.08 L 483.02 501.89 C 482.94 501.82 482.86 501.76 482.78 501.69 L 482.08 501.12 L 481.39 500.55 L 480.69 499.98 C 480.22 499.60 479.74 499.20 479.22 498.77 L 479.14 498.70 L 479.12 498.54 C 479.11 498.42 479.09 498.30 479.08 498.19 L 479.05 497.96 C 478.99 497.47 478.92 496.91 478.77 495.69 C 478.32 492.13 478.16 490.85 477.85 488.33 L 477.79 487.84 C 477.62 486.49 477.40 484.78 477.09 482.26 C 476.18 474.94 475.62 470.51 475.12 466.46 L 475.03 465.79 C 474.99 465.45 474.95 465.12 474.91 464.79 L 474.83 464.12 L 474.76 463.55 L 474.68 462.97 C 474.61 462.34 474.53 461.70 474.44 461.05 L 474.25 459.54 C 474.02 457.64 473.76 455.55 473.45 453.08 L 473.35 452.25 C 473.22 451.28 473.09 450.24 472.96 449.13 L 472.84 448.16 C 472.59 446.19 472.32 444.00 472.01 441.53 C 471.89 440.56 471.77 439.62 471.66 438.73 L 471.49 437.42 C 470.43 428.86 469.83 424.08 469.27 419.61 L 469.19 418.94 L 469.02 417.61 L 468.94 416.94 C 468.47 413.15 467.96 409.09 467.16 402.67 L 467.01 401.44 L 466.93 400.80 C 466.61 398.28 466.40 396.57 466.23 395.22 L 466.17 394.74 C 465.85 392.21 465.70 390.93 465.25 387.38 C 465.18 386.81 465.13 386.39 465.09 386.05 L 464.98 385.22 C 464.94 384.86 464.90 384.56 464.84 384.12 L 464.82 383.73 C 464.92 383.50 465.05 383.23 465.30 382.70 C 466.52 380.05 466.52 380.05 468.25 376.30 C 469.88 372.78 470.86 370.66 471.76 368.71 L 472.43 367.26 C 473.55 364.84 474.77 362.19 477.22 356.90 C 483.18 344.00 485.50 338.96 487.15 335.40 L 487.29 335.11 L 487.35 334.96 L 487.48 334.68 L 487.55 334.55 L 487.79 334.01 C 487.81 333.97 487.83 333.92 487.85 333.88 L 487.98 333.61 L 488.10 333.35 C 488.14 333.26 488.18 333.18 488.22 333.09 L 488.59 332.29 C 488.65 332.16 488.71 332.02 488.77 331.89 L 488.87 331.68 L 488.96 331.68 C 489.11 331.68 489.26 331.68 489.42 331.68 L 489.65 331.68 C 489.80 331.68 489.95 331.68 490.11 331.68 L 490.34 331.67 C 494.09 331.65 500.23 331.60 519.50 331.46 C 533.66 331.35 542.76 331.28 551.45 331.22 L 553.05 331.21 L 554.64 331.20 L 555.70 331.19 C 556.05 331.19 556.41 331.18 556.76 331.18 L 559.03 331.16 C 559.15 331.16 559.28 331.16 559.41 331.16 L 560.16 331.15 L 560.93 331.15 C 573.07 331.06 587.54 330.95 615.75 330.74 L 618.08 330.72 Z M 613.82 258.00 C 613.82 258.00 643.09 284.36 701.63 337.07 C 686.45 452.41 678.86 510.08 678.86 510.08 C 678.86 510.08 661.61 514.30 627.12 522.73 C 629.86 520.82 633.11 518.55 637.09 515.78 L 639.12 514.36 L 639.30 511.89 L 649.86 372.28 L 649.97 370.83 L 649.79 370.48 C 650.11 370.08 650.39 369.73 650.66 369.40 L 650.81 369.21 L 651.04 368.93 C 652.30 367.35 653.73 365.57 658.75 359.31 L 659.50 358.38 C 662.04 355.20 662.43 354.72 664.55 352.07 L 664.93 351.59 L 665.07 351.70 C 665.82 352.27 666.71 352.94 668.61 354.38 C 671.31 356.41 673.20 357.84 674.90 359.13 L 675.29 359.42 C 675.42 359.52 675.55 359.61 675.68 359.71 L 676.06 360.00 L 676.41 360.27 C 676.53 360.36 676.65 360.44 676.77 360.53 L 677.12 360.80 C 680.28 363.18 683.76 365.81 691.81 371.89 L 698.10 363.55 C 690.28 357.65 686.77 355.01 683.68 352.68 L 683.30 352.39 C 682.98 352.15 682.67 351.91 682.35 351.67 L 681.97 351.38 C 681.84 351.28 681.71 351.19 681.58 351.09 L 681.19 350.79 C 679.49 349.51 677.60 348.08 674.90 346.05 C 672.92 344.55 672.05 343.89 671.27 343.30 L 670.90 343.03 C 670.42 342.66 669.90 342.27 669.10 341.67 L 668.46 341.18 C 668.16 340.95 668.03 340.86 667.66 340.58 C 667.43 340.41 667.43 340.41 667.29 340.30 C 667.24 340.26 667.24 340.26 667.17 340.21 L 663.13 337.16 L 659.94 341.13 C 659.92 341.15 659.92 341.15 659.90 341.18 C 659.84 341.26 659.84 341.26 659.74 341.37 C 659.57 341.60 659.52 341.65 659.36 341.85 L 659.15 342.12 C 658.27 343.21 658.27 343.21 657.03 344.76 C 655.81 346.28 655.10 347.17 654.43 348.00 L 654.17 348.33 C 654.03 348.50 653.90 348.67 653.76 348.84 L 653.48 349.19 C 652.80 350.04 651.96 351.08 650.60 352.78 C 648.91 354.89 647.64 356.48 646.63 357.74 L 645.71 358.88 C 645.30 359.40 644.94 359.84 644.63 360.24 L 626.38 324.00 L 626.57 323.86 C 626.72 323.75 626.86 323.64 627.01 323.53 L 627.32 323.30 C 627.43 323.22 627.53 323.14 627.65 323.05 L 628.00 322.79 C 628.06 322.75 628.11 322.70 628.17 322.66 L 628.74 322.24 C 629.00 322.04 629.29 321.82 629.61 321.58 L 630.11 321.20 C 630.20 321.14 630.29 321.07 630.38 321.00 L 630.95 320.58 L 631.26 320.35 L 632.66 319.30 C 633.68 318.53 634.88 317.63 636.30 316.56 C 636.41 316.49 636.50 316.41 636.60 316.34 L 637.16 315.92 C 637.25 315.86 637.33 315.79 637.42 315.73 L 637.90 315.37 C 638.76 314.72 639.40 314.24 639.96 313.82 L 640.32 313.55 C 640.44 313.46 640.56 313.37 640.67 313.29 L 641.01 313.03 C 641.91 312.36 642.83 311.67 644.48 310.43 L 645.01 310.04 C 645.31 309.81 645.54 309.64 645.74 309.49 L 645.93 309.34 L 646.03 309.38 L 646.68 309.62 C 647.25 309.83 647.95 310.09 649.34 310.60 C 651.78 311.49 653.37 312.08 654.87 312.63 L 655.28 312.78 L 655.46 312.84 L 655.99 313.04 C 658.48 313.95 661.20 314.95 667.56 317.29 L 669.67 309.34 C 663.71 307.15 661.37 305.61 659.39 304.24 L 659.11 304.05 L 658.78 303.82 L 658.38 303.54 C 657.02 302.63 655.57 301.77 652.94 300.80 C 651.55 300.29 650.85 300.03 650.28 299.82 L 649.62 299.58 C 649.29 299.46 648.92 299.32 648.39 299.13 L 648.04 299.00 L 647.47 298.79 C 647.41 298.77 647.34 298.74 647.25 298.71 C 647.18 298.68 647.14 298.67 647.10 298.66 L 647.02 298.62 L 646.96 298.60 C 646.92 298.59 646.92 298.59 646.87 298.57 L 644.21 297.59 L 641.92 299.31 C 641.90 299.32 641.90 299.32 641.87 299.34 C 641.82 299.38 641.80 299.39 641.77 299.42 L 641.67 299.49 C 641.58 299.56 641.52 299.61 641.46 299.65 L 641.35 299.73 C 641.25 299.80 641.14 299.89 640.91 300.06 C 640.86 300.10 640.81 300.14 640.76 300.18 L 640.48 300.39 C 640.14 300.64 639.91 300.81 639.62 301.03 L 639.28 301.29 L 639.20 301.35 L 638.45 301.91 L 638.22 302.08 C 637.93 302.29 637.67 302.49 637.42 302.68 L 636.96 303.03 C 636.21 303.58 635.65 304.01 635.12 304.41 L 634.17 305.11 C 633.21 305.84 632.10 306.67 630.04 308.21 C 628.61 309.28 627.42 310.18 626.40 310.94 L 625.00 311.99 C 624.02 312.72 622.81 313.69 621.59 314.67 L 621.03 315.12 C 618.97 316.78 617.01 318.40 616.32 318.92 L 615.78 319.33 C 615.41 319.60 615.01 319.90 614.53 320.26 L 614.63 320.31 C 585.63 320.53 571.36 320.63 558.95 320.72 L 556.69 320.74 L 555.62 320.75 L 554.56 320.76 L 552.44 320.77 C 549.67 320.79 546.88 320.81 543.92 320.84 C 546.70 316.90 550.33 311.76 566.65 288.64 L 560.83 285.91 C 569.11 275.22 575.96 266.38 576.65 265.49 L 576.70 265.42 L 576.72 265.42 C 576.73 265.42 576.74 265.42 576.75 265.41 L 577.98 265.17 C 580.37 264.69 585.82 263.60 591.76 262.41 L 592.61 262.24 L 593.04 262.16 L 594.15 261.93 L 594.56 261.85 L 595.38 261.69 L 595.79 261.61 L 596.61 261.44 C 597.42 261.28 598.24 261.12 599.04 260.96 L 599.84 260.80 C 606.61 259.44 612.51 258.26 613.63 258.04 L 613.74 258.02 C 613.76 258.01 613.77 258.01 613.78 258.01 L 613.82 258.00 Z M 475.48 301.46 L 475.52 301.54 C 476.50 303.41 477.93 306.13 480.86 311.70 L 481.51 312.94 C 483.52 316.76 484.89 319.37 485.89 321.27 L 485.48 321.27 L 482.17 321.30 L 480.78 324.30 C 480.19 325.57 479.71 326.61 479.26 327.59 L 479.11 327.91 L 478.96 328.23 C 478.90 328.37 478.84 328.50 478.78 328.63 L 478.66 328.89 C 478.60 329.02 478.54 329.15 478.48 329.28 L 478.30 329.67 L 478.17 329.94 C 476.48 333.62 474.32 338.27 467.74 352.52 C 465.29 357.81 464.07 360.46 462.95 362.89 L 462.28 364.33 C 461.38 366.28 460.40 368.40 458.77 371.92 C 457.80 374.03 457.37 374.96 456.97 375.83 L 456.83 376.12 C 456.56 376.71 456.28 377.33 455.82 378.32 C 455.73 378.52 455.65 378.68 455.59 378.81 C 454.26 379.32 452.22 380.10 446.33 382.35 C 441.68 384.12 438.95 385.16 436.40 386.14 L 435.79 386.37 L 435.28 386.56 C 435.20 386.60 435.11 386.63 435.03 386.66 L 434.51 386.86 C 431.75 387.91 428.70 389.08 423.20 391.18 L 421.58 391.79 C 414.83 394.37 411.46 395.66 408.37 396.84 L 406.83 397.42 L 406.28 397.64 C 403.86 398.56 401.19 399.58 396.84 401.24 C 390.47 403.67 388.61 404.38 387.27 404.89 L 387.09 404.96 L 386.84 405.05 C 386.45 405.20 386.07 405.34 385.59 405.53 L 389.31 415.28 C 389.59 415.18 389.83 415.08 390.06 415.00 L 390.23 414.93 C 390.29 414.91 390.34 414.89 390.40 414.87 L 390.65 414.77 L 390.73 414.74 L 390.90 414.68 C 390.93 414.67 390.96 414.65 390.98 414.64 L 391.15 414.58 C 392.48 414.07 394.44 413.33 400.56 410.99 C 411.81 406.70 411.81 406.70 425.31 401.55 C 431.95 399.01 435.32 397.72 438.38 396.56 L 438.95 396.34 L 439.51 396.12 C 442.25 395.08 445.03 394.02 450.05 392.10 C 452.18 391.29 453.81 390.67 455.08 390.18 C 455.39 392.66 455.54 393.90 455.81 396.03 L 455.87 396.52 C 456.04 397.86 456.25 399.58 456.57 402.09 C 457.12 406.54 457.54 409.91 457.90 412.79 L 458.00 413.59 C 458.20 415.19 458.38 416.63 458.56 418.03 L 458.93 421.07 C 459.39 424.75 459.88 428.67 460.64 434.74 L 460.76 435.70 C 461.02 437.80 461.32 440.15 461.65 442.82 C 462.10 446.43 462.48 449.45 462.80 452.06 L 463.08 454.26 C 463.62 458.61 464.01 461.75 464.39 464.76 L 464.50 465.63 L 464.57 466.21 L 464.68 467.08 L 464.76 467.75 C 465.27 471.80 465.82 476.23 466.73 483.55 C 467.05 486.07 467.26 487.78 467.43 489.13 L 467.49 489.62 C 467.51 489.83 467.54 490.03 467.56 490.23 L 467.67 491.07 C 467.76 491.79 467.84 492.45 467.93 493.18 L 468.00 493.75 C 468.11 494.63 468.24 495.64 468.41 496.98 C 468.48 497.54 468.53 497.96 468.57 498.31 L 468.68 499.14 C 468.73 499.61 468.78 499.99 468.88 500.74 C 468.91 501.04 468.93 501.19 468.95 501.31 L 468.96 501.46 C 468.97 501.53 468.98 501.61 469.00 501.73 C 469.02 501.88 469.02 501.88 469.03 501.98 C 469.04 502.02 469.04 502.02 469.04 502.07 L 469.30 504.14 L 470.91 505.46 C 472.75 506.97 474.08 508.05 475.46 509.19 L 476.16 509.76 L 476.40 509.96 C 478.83 511.95 481.79 514.37 488.03 519.49 L 399.26 519.49 C 399.26 519.49 386.60 489.29 373.32 457.60 L 372.50 455.64 L 372.09 454.65 L 370.41 450.64 L 370.00 449.66 L 369.17 447.70 C 355.89 416.01 343.23 385.81 343.23 385.81 L 343.26 385.79 C 343.30 385.76 343.37 385.70 343.47 385.61 L 343.65 385.46 C 344.62 384.65 347.31 382.41 351.70 378.75 L 352.39 378.17 C 352.86 377.78 353.35 377.37 353.85 376.95 L 354.85 376.12 C 359.26 372.45 364.93 367.72 371.85 361.95 L 373.47 360.60 C 373.90 360.24 374.33 359.88 374.77 359.51 L 376.10 358.41 C 377.22 357.48 378.36 356.52 379.53 355.54 L 380.96 354.36 C 388.37 348.17 396.88 341.08 406.49 333.07 C 406.49 334.43 406.64 335.31 406.73 335.27 L 407.17 335.05 L 407.25 335.01 L 407.49 334.89 C 408.87 334.21 410.80 333.26 417.35 330.04 C 422.03 327.74 424.83 326.37 427.41 325.10 L 427.96 324.83 L 428.56 324.53 C 431.71 322.99 434.91 321.41 441.29 318.28 L 442.89 317.49 C 449.81 314.09 453.29 312.37 456.46 310.81 L 456.91 310.59 L 458.44 309.84 C 461.00 308.58 463.79 307.21 468.43 304.93 L 469.50 304.40 C 472.24 303.05 474.08 302.15 475.39 301.50 L 475.48 301.46 Z M 472.24 258.00 C 472.24 258.00 540.92 267.57 540.92 267.57 C 540.92 267.57 546.60 274.84 557.95 289.39 C 552.30 297.08 547.93 301.96 544.59 305.33 L 543.92 306.00 C 540.07 309.82 537.67 311.58 536.30 313.53 L 535.89 314.11 C 535.68 314.40 535.49 314.67 535.30 314.94 L 534.36 316.27 C 533.92 316.90 533.46 317.55 532.93 318.29 L 536.61 320.89 C 531.68 320.93 526.12 320.97 519.42 321.02 C 508.73 321.10 502.08 321.15 497.64 321.18 C 496.51 319.04 495.21 316.56 490.76 308.08 C 486.64 300.25 485.21 297.54 484.13 295.48 L 484.01 295.26 C 483.95 295.14 483.90 295.03 483.84 294.93 L 483.50 294.28 C 483.16 293.64 482.81 292.96 482.36 292.11 L 479.99 287.61 L 475.43 289.85 C 475.06 290.03 474.75 290.19 474.45 290.34 L 474.00 290.56 L 473.92 290.59 L 473.77 290.67 L 473.61 290.75 C 472.23 291.43 470.25 292.40 463.82 295.56 C 459.14 297.86 456.35 299.24 453.77 300.50 L 453.22 300.77 L 452.61 301.07 C 449.47 302.62 446.27 304.19 439.89 307.33 L 438.28 308.12 C 431.37 311.52 427.89 313.23 424.71 314.79 L 424.26 315.01 L 422.74 315.76 C 422.30 315.98 421.86 316.20 421.40 316.42 C 427.34 309.60 434.69 301.16 441.93 292.83 L 443.28 291.28 C 458.18 274.16 472.24 258.00 472.24 258.00 Z" fill="#303d54" fill-rule="evenodd" group-id="1" id="形状结合" node-id="7" stroke="none" target-height="507" target-width="950" target-x="37" target-y="258"></path><g node-id="19"><path d="M 360.54 841.12 L 360.54 845.18 L 372.31 845.18 L 372.31 865.48 L 372.16 866.31 L 371.73 866.97 L 370.98 867.51 L 372.31 871.34 L 381.88 868.89 L 390.58 866.17 L 389.48 862.17 L 382.99 864.40 L 376.49 866.17 L 376.49 845.18 L 388.55 845.18 L 389.89 849.62 L 391.75 853.76 L 394.14 857.63 L 397.10 861.25 L 400.67 864.66 L 404.91 867.85 L 409.90 870.81 L 412.33 866.93 L 407.70 864.39 L 403.78 861.67 L 400.48 858.77 L 397.75 855.69 L 395.54 852.41 L 393.81 848.92 L 392.55 845.18 L 411.64 845.18 L 411.64 841.12 L 376.49 841.12 L 376.49 818.90 L 372.31 818.90 L 372.31 841.12 L 360.54 841.12 Z M 402.82 819.37 L 400.09 822.10 L 396.75 824.83 L 392.72 827.56 L 387.91 830.28 L 382.23 833.00 L 384.72 836.30 L 390.44 833.52 L 395.31 830.71 L 399.41 827.88 L 402.84 825.05 L 405.66 822.21 L 402.82 819.37 Z" fill="#303d54" fill-rule="nonzero" group-id="1,2" id="形状" node-id="9" stroke="none" target-height="52.432007" target-width="51.794006" target-x="360.538" target-y="818.904"></path><path d="M 464.76 844.60 L 462.69 848.88 L 460.19 852.72 L 457.23 856.18 L 453.81 859.27 L 449.86 862.01 L 445.36 864.41 L 440.21 866.44 L 434.37 868.09 L 436.63 871.80 L 442.62 870.06 L 447.91 867.91 L 452.58 865.37 L 456.70 862.46 L 460.30 859.16 L 463.43 855.47 L 466.11 851.34 L 468.35 846.74 L 464.76 844.60 Z M 462.15 824.30 L 458.61 825.98 L 461.84 831.10 L 464.99 836.79 L 468.06 843.09 L 471.72 841.23 L 467.00 832.28 L 462.15 824.30 Z M 441.91 825.69 L 440.25 832.29 L 438.24 838.11 L 435.93 843.23 L 433.32 847.73 L 436.40 850.63 L 438.53 847.35 L 440.55 843.41 L 442.45 838.73 L 444.21 833.20 L 445.79 826.73 L 441.91 825.69 Z M 450.43 818.73 L 450.43 853.53 L 454.72 853.53 L 454.72 818.73 L 450.43 818.73 Z M 422.65 819.77 L 419.69 822.67 L 423.93 825.92 L 427.29 828.83 L 429.90 831.43 L 432.92 828.47 L 430.04 825.68 L 426.64 822.79 L 422.65 819.77 Z M 421.61 834.04 L 418.65 836.94 L 422.64 839.98 L 425.77 842.76 L 428.16 845.29 L 431.12 842.28 L 428.46 839.61 L 425.31 836.87 L 421.61 834.04 Z M 427.99 849.64 L 425.38 856.48 L 422.46 863.21 L 419.23 869.83 L 423.40 871.63 L 426.38 865.17 L 429.17 858.35 L 431.76 851.15 L 427.99 849.64 Z" fill="#303d54" fill-rule="nonzero" group-id="1,2" id="形状" node-id="10" stroke="none" target-height="53.070007" target-width="53.070007" target-x="418.64755" target-y="818.73"></path><path d="M 488.76 844.37 L 493.40 852.54 L 495.67 849.06 L 492.12 844.22 L 488.76 840.07 L 488.76 833.98 L 494.27 833.98 L 494.27 829.98 L 488.76 829.98 L 488.76 818.79 L 484.94 818.79 L 484.94 829.98 L 477.80 829.98 L 477.80 833.98 L 484.76 833.98 L 483.40 839.59 L 481.67 844.79 L 479.59 849.62 L 477.16 854.11 L 478.96 858.63 L 481.20 854.10 L 483.20 849.16 L 484.94 843.79 L 484.94 871.63 L 488.76 871.63 L 488.76 844.37 Z M 523.22 871.51 L 524.91 871.30 L 526.13 870.75 L 526.98 869.87 L 527.53 868.61 L 527.74 866.81 L 527.74 843.73 L 497.12 843.73 L 497.12 871.68 L 500.94 871.68 L 500.94 847.44 L 523.97 847.44 L 523.97 866.00 L 523.74 867.20 L 523.13 867.85 L 522.06 868.09 L 518.17 867.91 L 519.16 871.51 L 523.22 871.51 Z M 505.47 856.55 L 505.47 867.22 L 519.62 867.22 L 519.62 856.55 L 505.47 856.55 Z M 516.55 864.32 L 508.54 864.32 L 508.54 859.50 L 516.55 859.50 L 516.55 864.32 Z M 506.28 824.07 L 504.02 826.27 L 508.77 829.63 L 495.96 829.63 L 495.96 832.88 L 508.14 832.88 L 505.51 834.59 L 502.12 836.27 L 497.83 837.89 L 492.48 839.44 L 494.39 842.51 L 499.43 840.71 L 503.62 838.84 L 507.06 836.90 L 509.85 834.91 L 512.08 832.88 L 513.01 832.88 L 513.01 837.35 L 512.80 838.21 L 512.22 838.71 L 511.09 838.91 L 508.02 838.62 L 508.77 841.87 L 512.25 841.87 L 513.97 841.68 L 515.16 841.20 L 515.97 840.49 L 516.47 839.50 L 516.66 838.16 L 516.66 832.88 L 524.55 832.88 L 522.81 835.62 L 520.66 838.16 L 524.32 839.20 L 526.87 835.49 L 528.84 831.84 L 528.84 829.63 L 517.76 829.63 L 521.58 826.73 L 525.01 823.60 L 525.01 820.53 L 498.68 820.53 L 498.68 823.95 L 519.91 823.95 L 516.43 826.90 L 513.01 829.34 L 510.05 826.78 L 506.28 824.07 Z M 515.62 848.60 L 513.99 851.04 L 516.59 852.50 L 519.23 854.34 L 521.94 856.60 L 523.68 853.99 L 519.83 851.09 L 515.62 848.60 Z M 509.24 848.72 L 506.98 850.84 L 504.38 852.82 L 501.41 854.63 L 503.26 857.01 L 506.42 855.11 L 509.17 853.05 L 511.56 850.80 L 509.24 848.72 Z" fill="#303d54" fill-rule="nonzero" group-id="1,2" id="形状" node-id="11" stroke="none" target-height="52.895996" target-width="51.67801" target-x="477.16312" target-y="818.78796"></path><path d="M 537.07 843.55 L 537.07 847.61 L 561.49 847.61 L 561.49 864.84 L 561.30 866.03 L 560.80 866.81 L 559.98 867.31 L 558.70 867.51 L 549.37 867.33 L 550.47 871.39 L 560.39 871.39 L 562.41 871.16 L 563.84 870.53 L 564.84 869.54 L 565.48 868.14 L 565.72 866.17 L 565.72 847.61 L 587.76 847.61 L 587.76 843.55 L 565.72 843.55 L 565.72 837.46 L 571.51 833.42 L 576.74 829.30 L 581.44 825.11 L 581.44 821.17 L 543.16 821.17 L 543.16 825.11 L 575.76 825.11 L 571.12 828.91 L 566.37 832.30 L 561.49 835.32 L 561.49 843.55 L 537.07 843.55 Z" fill="#303d54" fill-rule="nonzero" group-id="1,2" id="路径" node-id="12" stroke="none" target-height="50.228027" target-width="50.692017" target-x="537.0707" target-y="821.16595"></path><path d="M 611.01 833.81 L 610.15 839.23 L 608.95 844.37 L 607.42 849.24 L 610.84 850.46 L 612.34 845.36 L 613.48 840.10 L 614.26 834.68 L 611.01 833.81 Z M 598.95 819.77 L 596.11 822.50 L 600.09 825.82 L 603.25 828.81 L 605.68 831.49 L 608.58 828.59 L 605.91 825.79 L 602.72 822.85 L 598.95 819.77 Z M 597.67 833.58 L 594.83 836.30 L 598.61 839.69 L 601.62 842.80 L 603.94 845.64 L 606.84 842.74 L 604.23 839.76 L 601.19 836.70 L 597.67 833.58 Z M 603.01 851.09 L 599.70 860.54 L 595.82 869.77 L 599.76 871.45 L 603.38 862.38 L 606.72 852.49 L 603.01 851.09 Z M 629.05 820.59 L 629.05 869.94 L 632.76 869.94 L 632.76 820.59 L 629.05 820.59 Z M 641.58 818.79 L 641.58 871.92 L 645.58 871.92 L 645.58 818.79 L 641.58 818.79 Z M 616.70 819.25 L 616.70 836.71 L 616.40 843.54 L 615.66 849.48 L 614.55 854.64 L 613.09 859.10 L 611.33 862.95 L 609.28 866.25 L 606.95 869.07 L 610.14 871.92 L 612.65 868.79 L 614.86 865.16 L 616.76 860.95 L 618.33 856.09 L 619.55 850.49 L 620.36 844.07 L 620.70 836.71 L 620.70 819.25 L 616.70 819.25 Z M 636.53 834.04 L 634.10 834.85 L 635.74 841.51 L 637.40 849.59 L 639.96 848.43 L 638.38 840.93 L 636.53 834.04 Z M 624.59 834.10 L 622.21 834.85 L 623.60 841.54 L 624.99 849.64 L 627.54 848.48 L 626.18 840.98 L 624.59 834.10 Z" fill="#303d54" fill-rule="nonzero" group-id="1,2" id="形状" node-id="13" stroke="none" target-height="53.12799" target-width="50.75" target-x="594.8322" target-y="818.78796"></path><path d="M 655.03 845.82 L 655.03 849.88 L 679.56 849.88 L 677.99 853.24 L 676.08 856.31 L 673.65 858.88 L 670.46 861.36 L 666.39 863.75 L 661.29 866.05 L 654.97 868.20 L 657.23 871.74 L 663.45 869.61 L 668.61 867.27 L 672.86 864.75 L 676.30 862.09 L 679.04 859.27 L 680.90 856.55 L 689.71 862.16 L 696.68 867.20 L 702.07 871.74 L 705.08 868.78 L 698.84 863.89 L 691.41 858.75 L 682.64 853.36 L 684.03 849.88 L 705.37 849.88 L 705.37 845.82 L 685.13 845.82 L 685.90 841.38 L 686.29 836.30 L 686.29 818.73 L 682.06 818.73 L 682.06 836.30 L 681.66 841.27 L 680.84 845.82 L 655.03 845.82 Z M 659.73 831.14 L 657.52 834.39 L 661.89 836.50 L 666.23 839.08 L 670.57 842.16 L 672.84 838.74 L 668.77 835.92 L 664.40 833.38 L 659.73 831.14 Z M 666.11 821.80 L 663.90 825.05 L 667.62 826.83 L 671.35 829.06 L 675.10 831.78 L 677.30 828.42 L 673.83 826.00 L 670.11 823.80 L 666.11 821.80 Z" fill="#303d54" fill-rule="nonzero" group-id="1,2" id="形状" node-id="14" stroke="none" target-height="53.012024" target-width="50.401978" target-x="654.9718" target-y="818.73"></path></g></g></svg>