<?xml version="1.0" standalone="no"?><!DOCTYPE svg PUBLIC "-//W3C//DTD SVG 1.1//EN" "http://www.w3.org/Graphics/SVG/1.1/DTD/svg11.dtd"><svg t="1716022575362" class="icon" viewBox="0 0 1024 1024" version="1.1" xmlns="http://www.w3.org/2000/svg" p-id="4351" width="32" height="32" xmlns:xlink="http://www.w3.org/1999/xlink"><path d="M430.09 264.33H367.4v87.434h65.13q6.126 0 7.339-1.834c0.807-1.221 1.227-4.172 1.227-8.868V273.5c0-3.867-0.656-6.378-1.992-7.494-1.304-1.106-4.323-1.676-9.014-1.676z m-99.99 0h-64.523c-3.056 0-5 0.5-5.808 1.525s-1.221 3.564-1.221 7.646v67.561c0 4.895 0.456 7.909 1.373 9.02s3.1 1.682 6.574 1.682H330.1V264.33zM348.751 172c6.332 0 11.008 1.221 14.064 3.669s4.587 7.033 4.587 13.757v38.521h75.221a122.837 122.837 0 0 1 18.195 1.069c4.586 0.723 8.145 2.3 10.7 4.738s4.277 5.9 5.194 10.4a91.653 91.653 0 0 1 1.379 17.73v92.634a94.543 94.543 0 0 1-1.221 16.661 18.427 18.427 0 0 1-5.048 10.241c-2.553 2.447-6.118 4.171-10.7 5.2a86.484 86.484 0 0 1-18.19 1.53H367.4v62.975c0 5.309-1.311 9.523-3.974 12.689q-3.963 4.748-14.677 4.737c-7.952 0-13.042-1.31-15.291-3.972q-3.373-3.963-3.36-13.758v-62.674H256.4a84.574 84.574 0 0 1-17.885-1.53 21.281 21.281 0 0 1-10.7-5.351 19.252 19.252 0 0 1-5.043-10.393 91.644 91.644 0 0 1-1.227-16.357v-92.938a96.275 96.275 0 0 1 1.227-16.97 18.371 18.371 0 0 1 5.043-10.241 20.989 20.989 0 0 1 10.7-5.042 94.26 94.26 0 0 1 17.885-1.378h73.7v-38.521c0-6.724 1.415-11.31 4.278-13.757 2.841-2.448 7.647-3.669 14.373-3.669z m191.09 5.854c174.036 0.534 314.688 142.089 314.159 316.16a315.1 315.1 0 0 1-9.728 76.708 25.058 25.058 0 0 1-49.347-6.164 25.421 25.421 0 0 1 0.765-6.158c36.074-141.906-49.7-286.185-191.575-322.261a264.69 264.69 0 0 0-64.274-8.174 25.059 25.059 0 0 1-4.507-49.708z m126.6 444.673c6.849 0 11.939 1.549 15.271 4.7a16.162 16.162 0 0 1 5.008 12.319A16.343 16.343 0 0 1 681.714 652q-5 4.711-15.271 4.717h-97.016v53.736h89.316q9.862 0 14.718 4.586a15.74 15.74 0 0 1 4.861 12.018 16.339 16.339 0 0 1-4.795 12.166c-3.184 3.125-8.127 4.7-14.784 4.7h-89.316v62.263h100.326c6.783 0 11.873 1.636 15.314 4.871a16.942 16.942 0 0 1 5.134 12.91 16.542 16.542 0 0 1-5.134 12.625c-3.441 3.234-8.531 4.849-15.314 4.849H552.759q-14.066 0-20.235-6.425-6.144-6.42-6.155-20.752V649.7q0-9.572 2.758-15.619a17.369 17.369 0 0 1 8.613-8.805c3.921-1.833 8.908-2.753 15.019-2.753h113.684z m126.481 54.727q18.17 0 32.512 6.945 14.295 6.945 21.376 19.69a42.433 42.433 0 0 1 5.887 15.964 146.315 146.315 0 0 1 1.355 21.874v75.14c0 8.094-2.12 14.191-6.33 18.344a24.906 24.906 0 0 1-33.08-0.147q-6.39-6.363-6.4-18.175v-67.308q0-19.956-6.308-30.549t-25.171-10.578a40.962 40.962 0 0 0-22.413 6.446 37.581 37.581 0 0 0-14.778 17.677q-3.4 9.023-3.376 33.706v50.584q0 12.264-6.5 18.41a23.393 23.393 0 0 1-16.75 6.146 22.2 22.2 0 0 1-16.329-6.359q-6.39-6.363-6.407-18.175V700.19c0-7.706 1.923-13.436 5.74-17.245q5.727-5.681 15.642-5.691a23.629 23.629 0 0 1 10.961 2.512 19.081 19.081 0 0 1 7.832 7.547 23.827 23.827 0 0 1 2.954 12.269v4.887q12.084-14.045 26.5-20.637t33.085-6.578zM482.974 853C309.051 852.473 168.482 711.057 169 537.117a314.966 314.966 0 0 1 8.8-72.992 25.322 25.322 0 0 1 30.23-18.468 25.029 25.029 0 0 1 18.47 30.148c-34.379 142.164 52.988 285.276 195.143 319.658a264.95 264.95 0 0 0 61.328 7.42 25.057 25.057 0 0 1 0.003 50.117z" fill="#515151" p-id="4352"></path></svg>